<svg xmlns="http://www.w3.org/2000/svg" xmlns:svg="http://www.w3.org/2000/svg" id="svg2" width="210mm" height="297mm" version="1.1" viewBox="0 0 744.094 1052.362"><metadata id="metadata7"/><g id="layer1"><rect style="fill:none;fill-opacity:1;stroke:none;stroke-width:16.4142437;stroke-miterlimit:4;stroke-dasharray:none;stroke-opacity:1" id="rect4268" width="1000" height="600" x="0" y="452.362"/><g id="g4239" style="stroke:#fff;stroke-width:16;stroke-miterlimit:4;stroke-dasharray:none;stroke-opacity:1;fill:#000;fill-opacity:1" transform="matrix(0.99325919,0,0,0.98684062,178.01036,350.70533)"><path id="path4203" d="m -120.86863,222.16711 -0.0344,30.07216 c 27.975766,61.81768 200.047439,131.39474 310.14681,129.97309 59.98591,-0.77457 90.02036,40.33836 89.82132,109.69241 l -100.22721,79.92836 0.27369,60.2458 449.97841,-0.0565 -0.11963,-55.17393 -99.88462,-84.85856 c 2.76308,-160.39808 104.76019,-230.24401 240.0367,-239.97362 l 0.1187,-69.96251 -580.27108,-0.10735 0.15406,15.09496 -54.97201,0 0.22003,25.04051 z" style="fill:#000;fill-rule:evenodd;stroke:#fff;stroke-width:16;stroke-linecap:butt;stroke-linejoin:miter;stroke-miterlimit:4;stroke-dasharray:none;stroke-opacity:1;fill-opacity:1"/><path id="path4207" d="m 180.30814,571.28372 133.7358,1.04403 0.23925,59.72631" style="fill:#000;fill-rule:evenodd;stroke:#fff;stroke-width:16;stroke-linecap:butt;stroke-linejoin:miter;stroke-miterlimit:4;stroke-dasharray:none;stroke-opacity:1;fill-opacity:1"/><path style="fill:#000;fill-rule:evenodd;stroke:#fff;stroke-width:16;stroke-linecap:butt;stroke-linejoin:miter;stroke-miterlimit:4;stroke-dasharray:none;stroke-opacity:1;fill-opacity:1" id="path4211" d="m 628.92549,576.79573 -134.6602,0.11962 -0.0852,55.10427"/><path id="path4213" d="M 311.64773,576.53833 C 370,512.3622 439.84593,524.05695 494.02206,577.18905" style="fill:#000;fill-rule:evenodd;stroke:#fff;stroke-width:16;stroke-linecap:butt;stroke-linejoin:miter;stroke-miterlimit:4;stroke-dasharray:none;stroke-opacity:1;fill-opacity:1"/><path id="path4215" d="m 134.29948,202.3622 0,109.84593" style="fill:#000;fill-rule:evenodd;stroke:#fff;stroke-width:16;stroke-linecap:butt;stroke-linejoin:miter;stroke-miterlimit:4;stroke-dasharray:none;stroke-opacity:1;fill-opacity:1"/><path style="fill:#000;fill-rule:evenodd;stroke:#fff;stroke-width:16;stroke-linecap:butt;stroke-linejoin:miter;stroke-miterlimit:4;stroke-dasharray:none;stroke-opacity:1;fill-opacity:1" id="path4217" d="m 188.92441,202.3622 0.30814,179.52248"/><path id="path4219" d="m 534.22823,451.89212 -65.02139,0.12251" style="fill:#000;fill-rule:evenodd;stroke:#fff;stroke-width:16;stroke-linecap:butt;stroke-linejoin:miter;stroke-miterlimit:4;stroke-dasharray:none;stroke-opacity:1;fill-opacity:1"/><path style="fill:#000;fill-rule:evenodd;stroke:#fff;stroke-width:16;stroke-linecap:butt;stroke-linejoin:miter;stroke-miterlimit:4;stroke-dasharray:none;stroke-opacity:1;fill-opacity:1" id="path4221" d="M 529.12769,492.26973 488.80424,492.1501"/></g></g></svg>